<svg width="86" height="53" viewBox="0 0 86 53" fill="none" xmlns="http://www.w3.org/2000/svg">
<mask id="path-1-inside-1_29_7542" fill="white">
<path fill-rule="evenodd" clip-rule="evenodd" d="M22.9039 0.0923927C20.3703 0.478597 18.5352 1.76281 17.524 3.85705C16.7196 5.52322 16.4696 7.00595 16.4696 10.1106V12.0947L13.3522 12.1658C10.0185 12.2418 9.27385 12.3326 8.09003 12.8071C5.75812 13.7417 4.33828 15.6379 3.74294 18.6122C3.61684 19.2425 3.56158 20.186 3.52627 22.3149L3.47888 25.1717H1.90113C0.599703 25.1717 0.295844 25.1995 0.16646 25.3306C-0.025073 25.5249 -0.00671754 25.0592 0.00944304 29.3174C0.0212143 32.4423 0.04346 32.9298 0.181423 33.0844C0.320285 33.2398 0.542343 33.2619 1.97046 33.2619H3.60098L3.61235 35.2592C3.69236 49.3062 3.75132 52.6719 3.9203 52.8431C4.07493 52.9999 4.43565 53.013 8.01033 52.9925C11.7299 52.9712 11.9406 52.96 12.1257 52.7753C12.3145 52.5868 12.3201 52.4247 12.2998 47.6995C12.2882 45.0149 12.25 40.6455 12.2148 37.9896L12.1508 33.1608H14.3102H16.4696V36.5328C16.4696 39.6712 16.4823 39.9166 16.6521 40.0723C16.8153 40.2221 17.2456 40.2397 20.7364 40.2397H24.6384L24.7936 40.0149C24.9316 39.8153 24.9489 38.7215 24.9489 30.2561V20.7221H27.2362C29.1184 20.7221 29.5495 20.6957 29.6705 20.5731C29.8466 20.3946 29.8583 20.3068 30.2407 16.3352C30.5152 13.4829 30.5279 13.1917 30.3864 12.9728L30.2314 12.7331H27.5808H24.9303L24.9664 10.8369C25.0208 7.9793 24.945 8.05049 27.9915 7.99993C29.7278 7.97111 30.1163 7.93784 30.261 7.80526C30.4211 7.65862 30.4355 7.34442 30.4355 4.02047C30.4355 0.530374 30.4281 0.388089 30.236 0.193318C30.044 -0.00135204 29.9123 -0.00843095 26.7196 0.0037043C24.8952 0.010581 23.1782 0.0505261 22.9039 0.0923927ZM29.1387 4.03615V6.76658H27.4295C25.5492 6.76658 25.146 6.84212 24.6025 7.29629C23.8327 7.93946 23.654 8.74483 23.6529 11.5729C23.6522 13.1516 23.6799 13.5375 23.8074 13.7218C23.961 13.9443 23.9894 13.9466 26.5507 13.9466H29.1387L29.1386 14.2247C29.1386 14.3776 29.0264 15.6177 28.8893 16.9804C28.7522 18.3431 28.64 19.4695 28.64 19.4833C28.6399 19.4972 27.5876 19.5086 26.3013 19.5086C23.9977 19.5086 23.9603 19.5119 23.8074 19.7334C23.6695 19.9329 23.6521 21.022 23.6521 29.4416V38.925H20.7093H17.7664V35.6104C17.7664 32.7055 17.7463 32.2664 17.6032 32.0595L17.4401 31.8234L14.351 31.8618L11.2618 31.9002L11.0729 32.1367C10.8922 32.363 10.8861 32.5679 10.9331 36.8879C10.9601 39.371 11.0048 43.705 11.0324 46.5191L11.0825 51.6355L8.12485 51.7069C6.49822 51.7462 5.13325 51.7419 5.09175 51.6974C5.05025 51.6529 4.98361 47.2965 4.94371 42.0166L4.87128 32.4168L4.62449 32.1666L4.37779 31.9165L2.8539 31.9802L1.33002 32.0439L1.2565 29.311C1.2161 27.8078 1.2145 26.5459 1.25301 26.5069C1.29162 26.4678 2.0349 26.4197 2.90488 26.4001C4.21708 26.3704 4.51166 26.336 4.63366 26.1979C4.75497 26.0606 4.78908 25.4443 4.82769 22.6941C4.87647 19.2151 4.91797 18.8277 5.38912 17.4521C6.055 15.5078 7.36839 14.3037 9.45251 13.7265C10.1666 13.5287 10.5459 13.5059 13.8013 13.4657L17.3679 13.4218L17.5671 13.1649C17.7544 12.9236 17.7664 12.7539 17.7664 10.3562C17.7664 6.99149 17.9488 5.85836 18.7388 4.31425C19.3531 3.11357 20.2068 2.33125 21.4574 1.82308C22.5295 1.38753 23.1399 1.3222 26.2208 1.3137L29.1387 1.30572V4.03615ZM39.0146 10.6692C38.1246 10.9088 37.405 11.3177 36.8182 11.9176C35.7792 12.9797 35.2787 14.3919 35.1582 16.6012L35.0935 17.7894H34.1112H33.129V18.8007V19.812H34.1265H35.1241V26.183V32.554H36.4708H37.8175V26.183V19.812H39.5633H41.309V18.8007V17.7894H39.5633H37.8175L37.8192 16.8035C37.8222 15.1346 38.1459 14.0362 38.8312 13.3703C39.4478 12.7711 40.2987 12.5541 41.314 12.7369C42.4241 12.9369 42.3223 13.0056 42.5164 11.9241C42.6111 11.3957 42.656 10.9287 42.616 10.8862C42.4693 10.7303 41.1367 10.5119 40.3613 10.5167C39.9224 10.5194 39.3164 10.5881 39.0146 10.6692ZM72.3832 10.6709C70.9126 10.9785 69.5722 11.8758 68.7829 13.0809C68.1572 14.0361 67.7481 15.7036 67.7453 17.3091L67.7445 17.7894H66.747H65.7494V18.8007V19.812H66.747H67.7445V26.183V32.554H69.0912H70.438V26.183V19.812H73.3808H76.3236V26.183V32.554H77.6204H78.9173V25.1717V17.7894H74.6638H70.4101L70.4655 16.6518C70.5419 15.083 70.7874 14.3861 71.5287 13.6341C72.1431 13.0109 72.6518 12.7854 73.6801 12.6806C74.4507 12.602 75.7217 12.8317 76.5161 13.1931C76.8514 13.3456 77.1414 13.4525 77.1604 13.4305C77.1794 13.4084 77.3536 12.9581 77.5475 12.4297L77.9002 11.469L77.6356 11.3C76.5622 10.6146 74.0759 10.3168 72.3832 10.6709ZM60.3625 21.6828V32.554H61.7093H63.056V21.6828V10.8117H61.7093H60.3625V21.6828ZM83.3066 21.6828V32.554H84.6533H86V21.6828V10.8117H84.6533H83.3066V21.6828ZM43.6034 22.2935C43.6034 24.8185 43.6504 27.2293 43.7104 27.7797C43.964 30.111 44.851 31.6165 46.434 32.4029C48.6201 33.4891 51.4817 32.8142 53.0304 30.8473L53.5292 30.2137L53.5966 30.6507C53.6338 30.8911 53.6674 31.4176 53.6715 31.8208L53.6788 32.554H54.8907H56.1025L56.0385 31.7197C56.0033 31.2608 55.9741 27.9389 55.9738 24.3374L55.9732 17.7894H54.63H53.2869L53.2584 22.8205L53.2299 27.8516L52.9458 28.4382C52.5823 29.1885 51.7991 29.982 51.0912 30.3172C50.6535 30.5244 50.3471 30.5872 49.6387 30.6149C48.7831 30.6484 48.7109 30.6342 48.1013 30.3126C47.346 29.9142 46.9158 29.353 46.5758 28.3226C46.3603 27.6698 46.3525 27.5001 46.3192 22.7194L46.2848 17.7894H44.9441H43.6034V22.2935ZM13.6245 18.9985C12.4563 19.0745 11.8486 19.3177 11.4271 19.8779C10.9357 20.531 10.871 20.9604 10.8783 23.5223C10.8819 24.8122 10.9095 25.9324 10.9395 26.0116C11.0692 26.3543 11.4358 26.3866 14.4544 26.3213C16.8997 26.2684 17.4478 26.2303 17.5919 26.1033C17.7513 25.9627 17.7664 25.6697 17.7664 22.7223C17.7664 19.533 17.7351 19.1876 17.4273 18.9792C17.2998 18.8928 15.0759 18.9042 13.6245 18.9985ZM16.4696 22.6456V25.0745L14.2999 25.0473L12.1302 25.02L12.1025 23.5157C12.0579 21.0885 12.2531 20.5115 13.1815 20.327C13.4262 20.2785 14.2662 20.2337 15.0481 20.2276L16.4696 20.2165V22.6456ZM48.292 36.7684V38.2524L48.0675 38.0451C47.6793 37.6867 47.3629 37.5741 46.7457 37.5747C45.3962 37.5762 44.5633 38.5705 44.5558 40.1891C44.5489 41.6641 45.2438 42.6129 46.4213 42.7361C47.1133 42.8085 47.6085 42.6449 48.0492 42.1982L48.3917 41.8509V42.2589V42.6667H48.7908H49.1898V38.9756V35.2844H48.7409H48.292V36.7684ZM69.2608 35.8103C69.195 35.877 69.1411 36.0727 69.1411 36.2451C69.1411 36.6291 69.297 36.8013 69.6444 36.8013C70.1425 36.8013 70.4217 36.1926 70.0817 35.8478C69.8962 35.6598 69.4303 35.6385 69.2608 35.8103ZM66.4228 36.3162L66.0487 36.417V37.0136V37.6104H65.6496C65.2601 37.6104 65.2506 37.6188 65.2506 37.9643C65.2506 38.3099 65.2601 38.3183 65.6496 38.3183H66.0487V40.0474C66.0487 41.9676 66.1387 42.3496 66.6557 42.6206C66.9404 42.7699 67.6972 42.8187 67.9857 42.7065C68.0847 42.6679 68.1436 42.5229 68.1436 42.3175C68.1436 41.9945 68.1373 41.9902 67.6867 41.9997C66.9825 42.0147 66.9465 41.9156 66.9465 39.9675V38.3183H67.6012H68.256L68.2247 37.9896C68.1934 37.6609 68.1934 37.6609 67.57 37.6308L66.9465 37.6008V36.8976C66.9465 36.511 66.9129 36.1993 66.8717 36.205C66.8305 36.2108 66.6286 36.2608 66.4228 36.3162ZM41.1594 37.599C40.0108 37.9009 39.4136 38.7969 39.4136 40.2183C39.4136 41.5436 39.9708 42.3814 41.0497 42.6786C41.5036 42.8037 42.8042 42.7448 43.2221 42.5803C43.4548 42.4885 43.4793 42.4386 43.4127 42.1916C43.3515 41.965 43.288 41.9154 43.0958 41.9442C42.9635 41.9639 42.4881 41.9866 42.0395 41.9947C41.352 42.0071 41.1796 41.976 40.9422 41.7965C40.61 41.5455 40.3576 41.1264 40.2636 40.6695L40.1958 40.3408H41.9607H43.7257L43.6875 39.6582C43.6405 38.8186 43.3771 38.2655 42.8464 37.892C42.4224 37.5936 41.6743 37.4636 41.1594 37.599ZM57.8637 37.6414C56.9013 37.9164 56.2983 38.5318 56.0628 39.4801C55.8321 40.4094 56.1085 41.583 56.6868 42.1295C57.2973 42.7065 58.3951 42.9165 59.4256 42.6535C59.8599 42.5425 59.8717 42.5292 59.8073 42.2237C59.7707 42.0501 59.7248 41.8906 59.7053 41.869C59.6859 41.8475 59.4684 41.887 59.222 41.9569C57.886 42.3361 56.7385 41.3391 56.9018 39.941C57.0264 38.8747 57.5266 38.395 58.5765 38.3348C58.9472 38.3136 59.3301 38.3463 59.4456 38.409C59.6778 38.535 59.7127 38.5006 59.8074 38.0525C59.8655 37.7777 59.8435 37.7283 59.6404 37.6766C59.0876 37.5359 58.2883 37.5202 57.8637 37.6414ZM61.6603 37.6662C60.9932 37.8547 60.9171 37.9247 61.0029 38.2709C61.0582 38.4946 61.1081 38.5293 61.2898 38.4704C62.6235 38.0384 63.298 38.2408 63.5071 39.1359C63.5674 39.3943 63.5589 39.3986 62.7445 39.5153C61.2796 39.7253 60.6604 40.2064 60.5878 41.1911C60.5408 41.8277 60.7802 42.3186 61.2665 42.5831C61.8849 42.9193 62.8813 42.7611 63.4287 42.2398L63.6545 42.0247V42.3457C63.6545 42.6528 63.6718 42.6667 64.0535 42.6667H64.4526L64.4502 41.0234C64.4475 39.2542 64.3608 38.6545 64.0418 38.2004C63.6251 37.6071 62.6464 37.3876 61.6603 37.6662ZM73.0138 37.6455C72.3546 37.8322 71.8928 38.2278 71.5819 38.8723C71.3623 39.3272 71.3136 39.5676 71.3136 40.1972C71.3136 41.6741 72.0908 42.6178 73.4068 42.7387C74.4589 42.8354 75.3061 42.4032 75.7863 41.5248C76.0405 41.0597 76.0741 40.8976 76.0737 40.1385C76.0731 39.177 75.9152 38.7288 75.3892 38.1956C74.8295 37.6282 73.8638 37.4045 73.0138 37.6455ZM79.4659 37.5544C79.4111 37.5755 79.2416 37.6206 79.0894 37.6547C78.937 37.6887 78.6341 37.8801 78.416 38.0798L78.0195 38.4429V38.0266V37.6104H77.6204H77.2214V40.1385V42.6667H77.6703H78.1192L78.1198 41.1751C78.1204 39.4109 78.2001 39.0515 78.6864 38.6187C79.0123 38.3286 79.0986 38.3005 79.533 38.3428C80.4683 38.4338 80.6117 38.7969 80.6125 41.074L80.6131 42.6667H81.062H81.511L81.5104 40.9728C81.5097 38.7839 81.3295 38.1375 80.6157 37.7635C80.3256 37.6114 79.6417 37.487 79.4659 37.5544ZM50.6861 39.5046C50.6861 41.2816 50.7013 41.4404 50.9106 41.8557C51.2027 42.435 51.5537 42.6837 52.1634 42.7432C52.7762 42.8028 53.2774 42.6423 53.6859 42.2555C53.8582 42.0923 54.0169 41.9588 54.0386 41.9588C54.0602 41.9588 54.0779 42.1181 54.0779 42.3128C54.0779 42.6585 54.0871 42.6667 54.4786 42.6667H54.8794L54.8527 40.1638L54.826 37.6609L54.4021 37.6299L53.9781 37.5987V39.1474C53.9781 39.9992 53.9343 40.851 53.8807 41.0403C53.6691 41.7883 52.9041 42.1993 52.244 41.9197C51.6902 41.6851 51.6392 41.4969 51.584 39.4812L51.5341 37.6609L51.1101 37.6299L50.6861 37.5987V39.5046ZM69.2409 40.1385V42.6667H69.6898H70.1387V40.1385V37.6104H69.6898H69.2409V40.1385ZM42.4188 38.4805C42.6286 38.6721 42.7495 38.9168 42.8652 39.3845L42.9268 39.6329H41.5744H40.2221L40.3332 39.3042C40.6065 38.4953 41.0077 38.1938 41.734 38.2512C42.0164 38.2736 42.2939 38.3665 42.4188 38.4805ZM47.6512 38.4843C48.067 38.7606 48.2255 39.1332 48.2718 39.9439C48.348 41.2782 47.8561 42.0094 46.8821 42.0094C45.9857 42.0094 45.4459 41.3008 45.457 40.1385C45.4636 39.4383 45.6174 39.0275 46.013 38.653C46.4887 38.2029 47.1283 38.137 47.6512 38.4843ZM74.2919 38.382C74.5004 38.4823 74.739 38.7274 74.9011 39.0078C75.4281 39.9195 75.1704 41.3846 74.3993 41.8612C74.0187 42.0965 73.4314 42.1178 73.0363 41.9107C72.4397 41.5979 72.0759 40.5819 72.2408 39.6891C72.3491 39.1029 72.5614 38.7684 73.0306 38.4447C73.4209 38.1755 73.8211 38.1555 74.2919 38.382ZM63.5344 40.76C63.4944 41.3202 63.4541 41.4148 63.1248 41.7207C62.825 41.9992 62.6802 42.06 62.3165 42.06C61.9565 42.06 61.8345 42.0099 61.6667 41.7935C61.4407 41.5023 61.3986 41.0502 61.5677 40.73C61.7293 40.4238 62.4318 40.1433 63.043 40.1408L63.5787 40.1385L63.5344 40.76Z"/>
</mask>
<path fill-rule="evenodd" clip-rule="evenodd" d="M22.9039 0.0923927C20.3703 0.478597 18.5352 1.76281 17.524 3.85705C16.7196 5.52322 16.4696 7.00595 16.4696 10.1106V12.0947L13.3522 12.1658C10.0185 12.2418 9.27385 12.3326 8.09003 12.8071C5.75812 13.7417 4.33828 15.6379 3.74294 18.6122C3.61684 19.2425 3.56158 20.186 3.52627 22.3149L3.47888 25.1717H1.90113C0.599703 25.1717 0.295844 25.1995 0.16646 25.3306C-0.025073 25.5249 -0.00671754 25.0592 0.00944304 29.3174C0.0212143 32.4423 0.04346 32.9298 0.181423 33.0844C0.320285 33.2398 0.542343 33.2619 1.97046 33.2619H3.60098L3.61235 35.2592C3.69236 49.3062 3.75132 52.6719 3.9203 52.8431C4.07493 52.9999 4.43565 53.013 8.01033 52.9925C11.7299 52.9712 11.9406 52.96 12.1257 52.7753C12.3145 52.5868 12.3201 52.4247 12.2998 47.6995C12.2882 45.0149 12.25 40.6455 12.2148 37.9896L12.1508 33.1608H14.3102H16.4696V36.5328C16.4696 39.6712 16.4823 39.9166 16.6521 40.0723C16.8153 40.2221 17.2456 40.2397 20.7364 40.2397H24.6384L24.7936 40.0149C24.9316 39.8153 24.9489 38.7215 24.9489 30.2561V20.7221H27.2362C29.1184 20.7221 29.5495 20.6957 29.6705 20.5731C29.8466 20.3946 29.8583 20.3068 30.2407 16.3352C30.5152 13.4829 30.5279 13.1917 30.3864 12.9728L30.2314 12.7331H27.5808H24.9303L24.9664 10.8369C25.0208 7.9793 24.945 8.05049 27.9915 7.99993C29.7278 7.97111 30.1163 7.93784 30.261 7.80526C30.4211 7.65862 30.4355 7.34442 30.4355 4.02047C30.4355 0.530374 30.4281 0.388089 30.236 0.193318C30.044 -0.00135204 29.9123 -0.00843095 26.7196 0.0037043C24.8952 0.010581 23.1782 0.0505261 22.9039 0.0923927ZM29.1387 4.03615V6.76658H27.4295C25.5492 6.76658 25.146 6.84212 24.6025 7.29629C23.8327 7.93946 23.654 8.74483 23.6529 11.5729C23.6522 13.1516 23.6799 13.5375 23.8074 13.7218C23.961 13.9443 23.9894 13.9466 26.5507 13.9466H29.1387L29.1386 14.2247C29.1386 14.3776 29.0264 15.6177 28.8893 16.9804C28.7522 18.3431 28.64 19.4695 28.64 19.4833C28.6399 19.4972 27.5876 19.5086 26.3013 19.5086C23.9977 19.5086 23.9603 19.5119 23.8074 19.7334C23.6695 19.9329 23.6521 21.022 23.6521 29.4416V38.925H20.7093H17.7664V35.6104C17.7664 32.7055 17.7463 32.2664 17.6032 32.0595L17.4401 31.8234L14.351 31.8618L11.2618 31.9002L11.0729 32.1367C10.8922 32.363 10.8861 32.5679 10.9331 36.8879C10.9601 39.371 11.0048 43.705 11.0324 46.5191L11.0825 51.6355L8.12485 51.7069C6.49822 51.7462 5.13325 51.7419 5.09175 51.6974C5.05025 51.6529 4.98361 47.2965 4.94371 42.0166L4.87128 32.4168L4.62449 32.1666L4.37779 31.9165L2.8539 31.9802L1.33002 32.0439L1.2565 29.311C1.2161 27.8078 1.2145 26.5459 1.25301 26.5069C1.29162 26.4678 2.0349 26.4197 2.90488 26.4001C4.21708 26.3704 4.51166 26.336 4.63366 26.1979C4.75497 26.0606 4.78908 25.4443 4.82769 22.6941C4.87647 19.2151 4.91797 18.8277 5.38912 17.4521C6.055 15.5078 7.36839 14.3037 9.45251 13.7265C10.1666 13.5287 10.5459 13.5059 13.8013 13.4657L17.3679 13.4218L17.5671 13.1649C17.7544 12.9236 17.7664 12.7539 17.7664 10.3562C17.7664 6.99149 17.9488 5.85836 18.7388 4.31425C19.3531 3.11357 20.2068 2.33125 21.4574 1.82308C22.5295 1.38753 23.1399 1.3222 26.2208 1.3137L29.1387 1.30572V4.03615ZM39.0146 10.6692C38.1246 10.9088 37.405 11.3177 36.8182 11.9176C35.7792 12.9797 35.2787 14.3919 35.1582 16.6012L35.0935 17.7894H34.1112H33.129V18.8007V19.812H34.1265H35.1241V26.183V32.554H36.4708H37.8175V26.183V19.812H39.5633H41.309V18.8007V17.7894H39.5633H37.8175L37.8192 16.8035C37.8222 15.1346 38.1459 14.0362 38.8312 13.3703C39.4478 12.7711 40.2987 12.5541 41.314 12.7369C42.4241 12.9369 42.3223 13.0056 42.5164 11.9241C42.6111 11.3957 42.656 10.9287 42.616 10.8862C42.4693 10.7303 41.1367 10.5119 40.3613 10.5167C39.9224 10.5194 39.3164 10.5881 39.0146 10.6692ZM72.3832 10.6709C70.9126 10.9785 69.5722 11.8758 68.7829 13.0809C68.1572 14.0361 67.7481 15.7036 67.7453 17.3091L67.7445 17.7894H66.747H65.7494V18.8007V19.812H66.747H67.7445V26.183V32.554H69.0912H70.438V26.183V19.812H73.3808H76.3236V26.183V32.554H77.6204H78.9173V25.1717V17.7894H74.6638H70.4101L70.4655 16.6518C70.5419 15.083 70.7874 14.3861 71.5287 13.6341C72.1431 13.0109 72.6518 12.7854 73.6801 12.6806C74.4507 12.602 75.7217 12.8317 76.5161 13.1931C76.8514 13.3456 77.1414 13.4525 77.1604 13.4305C77.1794 13.4084 77.3536 12.9581 77.5475 12.4297L77.9002 11.469L77.6356 11.3C76.5622 10.6146 74.0759 10.3168 72.3832 10.6709ZM60.3625 21.6828V32.554H61.7093H63.056V21.6828V10.8117H61.7093H60.3625V21.6828ZM83.3066 21.6828V32.554H84.6533H86V21.6828V10.8117H84.6533H83.3066V21.6828ZM43.6034 22.2935C43.6034 24.8185 43.6504 27.2293 43.7104 27.7797C43.964 30.111 44.851 31.6165 46.434 32.4029C48.6201 33.4891 51.4817 32.8142 53.0304 30.8473L53.5292 30.2137L53.5966 30.6507C53.6338 30.8911 53.6674 31.4176 53.6715 31.8208L53.6788 32.554H54.8907H56.1025L56.0385 31.7197C56.0033 31.2608 55.9741 27.9389 55.9738 24.3374L55.9732 17.7894H54.63H53.2869L53.2584 22.8205L53.2299 27.8516L52.9458 28.4382C52.5823 29.1885 51.7991 29.982 51.0912 30.3172C50.6535 30.5244 50.3471 30.5872 49.6387 30.6149C48.7831 30.6484 48.7109 30.6342 48.1013 30.3126C47.346 29.9142 46.9158 29.353 46.5758 28.3226C46.3603 27.6698 46.3525 27.5001 46.3192 22.7194L46.2848 17.7894H44.9441H43.6034V22.2935ZM13.6245 18.9985C12.4563 19.0745 11.8486 19.3177 11.4271 19.8779C10.9357 20.531 10.871 20.9604 10.8783 23.5223C10.8819 24.8122 10.9095 25.9324 10.9395 26.0116C11.0692 26.3543 11.4358 26.3866 14.4544 26.3213C16.8997 26.2684 17.4478 26.2303 17.5919 26.1033C17.7513 25.9627 17.7664 25.6697 17.7664 22.7223C17.7664 19.533 17.7351 19.1876 17.4273 18.9792C17.2998 18.8928 15.0759 18.9042 13.6245 18.9985ZM16.4696 22.6456V25.0745L14.2999 25.0473L12.1302 25.02L12.1025 23.5157C12.0579 21.0885 12.2531 20.5115 13.1815 20.327C13.4262 20.2785 14.2662 20.2337 15.0481 20.2276L16.4696 20.2165V22.6456ZM48.292 36.7684V38.2524L48.0675 38.0451C47.6793 37.6867 47.3629 37.5741 46.7457 37.5747C45.3962 37.5762 44.5633 38.5705 44.5558 40.1891C44.5489 41.6641 45.2438 42.6129 46.4213 42.7361C47.1133 42.8085 47.6085 42.6449 48.0492 42.1982L48.3917 41.8509V42.2589V42.6667H48.7908H49.1898V38.9756V35.2844H48.7409H48.292V36.7684ZM69.2608 35.8103C69.195 35.877 69.1411 36.0727 69.1411 36.2451C69.1411 36.6291 69.297 36.8013 69.6444 36.8013C70.1425 36.8013 70.4217 36.1926 70.0817 35.8478C69.8962 35.6598 69.4303 35.6385 69.2608 35.8103ZM66.4228 36.3162L66.0487 36.417V37.0136V37.6104H65.6496C65.2601 37.6104 65.2506 37.6188 65.2506 37.9643C65.2506 38.3099 65.2601 38.3183 65.6496 38.3183H66.0487V40.0474C66.0487 41.9676 66.1387 42.3496 66.6557 42.6206C66.9404 42.7699 67.6972 42.8187 67.9857 42.7065C68.0847 42.6679 68.1436 42.5229 68.1436 42.3175C68.1436 41.9945 68.1373 41.9902 67.6867 41.9997C66.9825 42.0147 66.9465 41.9156 66.9465 39.9675V38.3183H67.6012H68.256L68.2247 37.9896C68.1934 37.6609 68.1934 37.6609 67.57 37.6308L66.9465 37.6008V36.8976C66.9465 36.511 66.9129 36.1993 66.8717 36.205C66.8305 36.2108 66.6286 36.2608 66.4228 36.3162ZM41.1594 37.599C40.0108 37.9009 39.4136 38.7969 39.4136 40.2183C39.4136 41.5436 39.9708 42.3814 41.0497 42.6786C41.5036 42.8037 42.8042 42.7448 43.2221 42.5803C43.4548 42.4885 43.4793 42.4386 43.4127 42.1916C43.3515 41.965 43.288 41.9154 43.0958 41.9442C42.9635 41.9639 42.4881 41.9866 42.0395 41.9947C41.352 42.0071 41.1796 41.976 40.9422 41.7965C40.61 41.5455 40.3576 41.1264 40.2636 40.6695L40.1958 40.3408H41.9607H43.7257L43.6875 39.6582C43.6405 38.8186 43.3771 38.2655 42.8464 37.892C42.4224 37.5936 41.6743 37.4636 41.1594 37.599ZM57.8637 37.6414C56.9013 37.9164 56.2983 38.5318 56.0628 39.4801C55.8321 40.4094 56.1085 41.583 56.6868 42.1295C57.2973 42.7065 58.3951 42.9165 59.4256 42.6535C59.8599 42.5425 59.8717 42.5292 59.8073 42.2237C59.7707 42.0501 59.7248 41.8906 59.7053 41.869C59.6859 41.8475 59.4684 41.887 59.222 41.9569C57.886 42.3361 56.7385 41.3391 56.9018 39.941C57.0264 38.8747 57.5266 38.395 58.5765 38.3348C58.9472 38.3136 59.3301 38.3463 59.4456 38.409C59.6778 38.535 59.7127 38.5006 59.8074 38.0525C59.8655 37.7777 59.8435 37.7283 59.6404 37.6766C59.0876 37.5359 58.2883 37.5202 57.8637 37.6414ZM61.6603 37.6662C60.9932 37.8547 60.9171 37.9247 61.0029 38.2709C61.0582 38.4946 61.1081 38.5293 61.2898 38.4704C62.6235 38.0384 63.298 38.2408 63.5071 39.1359C63.5674 39.3943 63.5589 39.3986 62.7445 39.5153C61.2796 39.7253 60.6604 40.2064 60.5878 41.1911C60.5408 41.8277 60.7802 42.3186 61.2665 42.5831C61.8849 42.9193 62.8813 42.7611 63.4287 42.2398L63.6545 42.0247V42.3457C63.6545 42.6528 63.6718 42.6667 64.0535 42.6667H64.4526L64.4502 41.0234C64.4475 39.2542 64.3608 38.6545 64.0418 38.2004C63.6251 37.6071 62.6464 37.3876 61.6603 37.6662ZM73.0138 37.6455C72.3546 37.8322 71.8928 38.2278 71.5819 38.8723C71.3623 39.3272 71.3136 39.5676 71.3136 40.1972C71.3136 41.6741 72.0908 42.6178 73.4068 42.7387C74.4589 42.8354 75.3061 42.4032 75.7863 41.5248C76.0405 41.0597 76.0741 40.8976 76.0737 40.1385C76.0731 39.177 75.9152 38.7288 75.3892 38.1956C74.8295 37.6282 73.8638 37.4045 73.0138 37.6455ZM79.4659 37.5544C79.4111 37.5755 79.2416 37.6206 79.0894 37.6547C78.937 37.6887 78.6341 37.8801 78.416 38.0798L78.0195 38.4429V38.0266V37.6104H77.6204H77.2214V40.1385V42.6667H77.6703H78.1192L78.1198 41.1751C78.1204 39.4109 78.2001 39.0515 78.6864 38.6187C79.0123 38.3286 79.0986 38.3005 79.533 38.3428C80.4683 38.4338 80.6117 38.7969 80.6125 41.074L80.6131 42.6667H81.062H81.511L81.5104 40.9728C81.5097 38.7839 81.3295 38.1375 80.6157 37.7635C80.3256 37.6114 79.6417 37.487 79.4659 37.5544ZM50.6861 39.5046C50.6861 41.2816 50.7013 41.4404 50.9106 41.8557C51.2027 42.435 51.5537 42.6837 52.1634 42.7432C52.7762 42.8028 53.2774 42.6423 53.6859 42.2555C53.8582 42.0923 54.0169 41.9588 54.0386 41.9588C54.0602 41.9588 54.0779 42.1181 54.0779 42.3128C54.0779 42.6585 54.0871 42.6667 54.4786 42.6667H54.8794L54.8527 40.1638L54.826 37.6609L54.4021 37.6299L53.9781 37.5987V39.1474C53.9781 39.9992 53.9343 40.851 53.8807 41.0403C53.6691 41.7883 52.9041 42.1993 52.244 41.9197C51.6902 41.6851 51.6392 41.4969 51.584 39.4812L51.5341 37.6609L51.1101 37.6299L50.6861 37.5987V39.5046ZM69.2409 40.1385V42.6667H69.6898H70.1387V40.1385V37.6104H69.6898H69.2409V40.1385ZM42.4188 38.4805C42.6286 38.6721 42.7495 38.9168 42.8652 39.3845L42.9268 39.6329H41.5744H40.2221L40.3332 39.3042C40.6065 38.4953 41.0077 38.1938 41.734 38.2512C42.0164 38.2736 42.2939 38.3665 42.4188 38.4805ZM47.6512 38.4843C48.067 38.7606 48.2255 39.1332 48.2718 39.9439C48.348 41.2782 47.8561 42.0094 46.8821 42.0094C45.9857 42.0094 45.4459 41.3008 45.457 40.1385C45.4636 39.4383 45.6174 39.0275 46.013 38.653C46.4887 38.2029 47.1283 38.137 47.6512 38.4843ZM74.2919 38.382C74.5004 38.4823 74.739 38.7274 74.9011 39.0078C75.4281 39.9195 75.1704 41.3846 74.3993 41.8612C74.0187 42.0965 73.4314 42.1178 73.0363 41.9107C72.4397 41.5979 72.0759 40.5819 72.2408 39.6891C72.3491 39.1029 72.5614 38.7684 73.0306 38.4447C73.4209 38.1755 73.8211 38.1555 74.2919 38.382ZM63.5344 40.76C63.4944 41.3202 63.4541 41.4148 63.1248 41.7207C62.825 41.9992 62.6802 42.06 62.3165 42.06C61.9565 42.06 61.8345 42.0099 61.6667 41.7935C61.4407 41.5023 61.3986 41.0502 61.5677 40.73C61.7293 40.4238 62.4318 40.1433 63.043 40.1408L63.5787 40.1385L63.5344 40.76Z" fill="black" stroke="#273B39" stroke-width="10" mask="url(#path-1-inside-1_29_7542)"/>
</svg>
