<svg width="98" height="13" viewBox="0 0 98 13" fill="none" xmlns="http://www.w3.org/2000/svg">
<path d="M2.44 8.72C2.52533 9.18933 2.71733 9.552 3.016 9.808C3.32533 10.0533 3.736 10.176 4.248 10.176C4.90933 10.176 5.38933 9.904 5.688 9.36C5.98667 8.80533 6.136 7.87733 6.136 6.576C5.89067 6.91733 5.544 7.184 5.096 7.376C4.65867 7.568 4.184 7.664 3.672 7.664C2.98933 7.664 2.37067 7.52533 1.816 7.248C1.272 6.96 0.84 6.53867 0.52 5.984C0.2 5.41867 0.0400001 4.736 0.0400001 3.936C0.0400001 2.752 0.392 1.81333 1.096 1.12C1.8 0.415999 2.76 0.0639992 3.976 0.0639992C5.49067 0.0639992 6.55733 0.549333 7.176 1.52C7.80533 2.49067 8.12 3.952 8.12 5.904C8.12 7.29067 7.99733 8.42667 7.752 9.312C7.51733 10.1973 7.10667 10.8693 6.52 11.328C5.944 11.7867 5.15467 12.016 4.152 12.016C3.36267 12.016 2.69067 11.8667 2.136 11.568C1.58133 11.2587 1.15467 10.8587 0.856 10.368C0.568 9.86667 0.402667 9.31733 0.36 8.72H2.44ZM4.136 5.84C4.69067 5.84 5.128 5.66933 5.448 5.328C5.768 4.98667 5.928 4.528 5.928 3.952C5.928 3.32267 5.75733 2.83733 5.416 2.496C5.08533 2.144 4.632 1.968 4.056 1.968C3.48 1.968 3.02133 2.14933 2.68 2.512C2.34933 2.864 2.184 3.33333 2.184 3.92C2.184 4.48533 2.344 4.94933 2.664 5.312C2.99467 5.664 3.48533 5.84 4.136 5.84ZM17.2876 2.032L13.0316 12H10.7596L15.0476 2.288H9.57563V0.367999H17.2876V2.032ZM28.4898 3.248C28.3831 2.8 28.1964 2.464 27.9298 2.24C27.6738 2.016 27.3004 1.904 26.8098 1.904C26.0738 1.904 25.5298 2.20267 25.1778 2.8C24.8364 3.38667 24.6604 4.34667 24.6498 5.68C24.9058 5.25333 25.2791 4.92267 25.7698 4.688C26.2604 4.44267 26.7938 4.32 27.3698 4.32C28.0631 4.32 28.6764 4.46933 29.2098 4.768C29.7431 5.06667 30.1591 5.504 30.4578 6.08C30.7564 6.64533 30.9058 7.328 30.9058 8.128C30.9058 8.88533 30.7511 9.56267 30.4418 10.16C30.1431 10.7467 29.7004 11.2053 29.1138 11.536C28.5271 11.8667 27.8284 12.032 27.0178 12.032C25.9084 12.032 25.0338 11.7867 24.3938 11.296C23.7644 10.8053 23.3218 10.1227 23.0658 9.248C22.8204 8.36267 22.6978 7.27467 22.6978 5.984C22.6978 4.032 23.0338 2.56 23.7057 1.568C24.3778 0.565333 25.4391 0.0639992 26.8898 0.0639992C28.0098 0.0639992 28.8791 0.367999 29.4978 0.976C30.1164 1.584 30.4738 2.34133 30.5698 3.248H28.4898ZM26.8578 6.16C26.2924 6.16 25.8178 6.32533 25.4338 6.656C25.0498 6.98667 24.8578 7.46667 24.8578 8.096C24.8578 8.72533 25.0338 9.22133 25.3858 9.584C25.7484 9.94667 26.2551 10.128 26.9058 10.128C27.4818 10.128 27.9351 9.952 28.2658 9.6C28.6071 9.248 28.7778 8.77333 28.7778 8.176C28.7778 7.55733 28.6124 7.06667 28.2818 6.704C27.9618 6.34133 27.4871 6.16 26.8578 6.16ZM33.3801 9.472C34.4041 8.61867 35.2201 7.90933 35.8281 7.344C36.4361 6.768 36.9428 6.17067 37.3481 5.552C37.7535 4.93333 37.9561 4.32533 37.9561 3.728C37.9561 3.184 37.8281 2.75733 37.5721 2.448C37.3161 2.13867 36.9215 1.984 36.3881 1.984C35.8548 1.984 35.4441 2.16533 35.1561 2.528C34.8681 2.88 34.7188 3.36533 34.7081 3.984H32.5321C32.5748 2.704 32.9535 1.73333 33.6681 1.072C34.3935 0.410666 35.3108 0.079999 36.4201 0.079999C37.6361 0.079999 38.5695 0.405333 39.2201 1.056C39.8708 1.696 40.1961 2.544 40.1961 3.6C40.1961 4.432 39.9721 5.22667 39.5241 5.984C39.0761 6.74133 38.5641 7.40267 37.9881 7.968C37.4121 8.52267 36.6601 9.19467 35.7321 9.984H40.4521V11.84H32.5481V10.176L33.3801 9.472ZM43.8156 5.824C42.749 5.26933 42.2156 4.41067 42.2156 3.248C42.2156 2.672 42.3596 2.14933 42.6476 1.68C42.9463 1.2 43.389 0.821333 43.9756 0.544C44.573 0.256 45.2983 0.112 46.1516 0.112C47.005 0.112 47.725 0.256 48.3116 0.544C48.909 0.821333 49.3516 1.2 49.6396 1.68C49.9383 2.14933 50.0876 2.672 50.0876 3.248C50.0876 3.83467 49.9436 4.352 49.6556 4.8C49.3676 5.23733 48.9836 5.57867 48.5036 5.824C49.0903 6.08 49.549 6.45333 49.8796 6.944C50.2103 7.43467 50.3756 8.016 50.3756 8.688C50.3756 9.41333 50.189 10.048 49.8156 10.592C49.453 11.1253 48.9516 11.536 48.3116 11.824C47.6716 12.112 46.9516 12.256 46.1516 12.256C45.3516 12.256 44.6316 12.112 43.9916 11.824C43.3623 11.536 42.861 11.1253 42.4876 10.592C42.125 10.048 41.9436 9.41333 41.9436 8.688C41.9436 8.016 42.109 7.43467 42.4396 6.944C42.7703 6.44267 43.229 6.06933 43.8156 5.824ZM47.9116 3.568C47.9116 3.04533 47.7516 2.64 47.4316 2.352C47.1223 2.064 46.6956 1.92 46.1516 1.92C45.6183 1.92 45.1916 2.064 44.8716 2.352C44.5623 2.64 44.4076 3.05067 44.4076 3.584C44.4076 4.064 44.5676 4.448 44.8876 4.736C45.2183 5.024 45.6396 5.168 46.1516 5.168C46.6636 5.168 47.085 5.024 47.4156 4.736C47.7463 4.43733 47.9116 4.048 47.9116 3.568ZM46.1516 6.8C45.5436 6.8 45.0476 6.95467 44.6636 7.264C44.2903 7.57333 44.1036 8.016 44.1036 8.592C44.1036 9.12533 44.285 9.56267 44.6476 9.904C45.021 10.2347 45.5223 10.4 46.1516 10.4C46.781 10.4 47.277 10.2293 47.6396 9.888C48.0023 9.54667 48.1836 9.11467 48.1836 8.592C48.1836 8.02667 47.997 7.58933 47.6236 7.28C47.2503 6.96 46.7596 6.8 46.1516 6.8ZM56.6614 9.472C57.6854 8.61867 58.5014 7.90933 59.1094 7.344C59.7174 6.768 60.224 6.17067 60.6294 5.552C61.0347 4.93333 61.2374 4.32533 61.2374 3.728C61.2374 3.184 61.1094 2.75733 60.8534 2.448C60.5974 2.13867 60.2027 1.984 59.6694 1.984C59.136 1.984 58.7254 2.16533 58.4374 2.528C58.1494 2.88 58 3.36533 57.9894 3.984H55.8134C55.856 2.704 56.2347 1.73333 56.9494 1.072C57.6747 0.410666 58.592 0.079999 59.7014 0.079999C60.9174 0.079999 61.8507 0.405333 62.5014 1.056C63.152 1.696 63.4774 2.544 63.4774 3.6C63.4774 4.432 63.2534 5.22667 62.8054 5.984C62.3574 6.74133 61.8454 7.40267 61.2694 7.968C60.6934 8.52267 59.9414 9.19467 59.0134 9.984H63.7334V11.84H55.8294V10.176L56.6614 9.472ZM67.0969 5.824C66.0302 5.26933 65.4969 4.41067 65.4969 3.248C65.4969 2.672 65.6409 2.14933 65.9289 1.68C66.2275 1.2 66.6702 0.821333 67.2569 0.544C67.8542 0.256 68.5795 0.112 69.4329 0.112C70.2862 0.112 71.0062 0.256 71.5929 0.544C72.1902 0.821333 72.6329 1.2 72.9209 1.68C73.2195 2.14933 73.3689 2.672 73.3689 3.248C73.3689 3.83467 73.2249 4.352 72.9369 4.8C72.6489 5.23733 72.2649 5.57867 71.7849 5.824C72.3715 6.08 72.8302 6.45333 73.1609 6.944C73.4915 7.43467 73.6569 8.016 73.6569 8.688C73.6569 9.41333 73.4702 10.048 73.0969 10.592C72.7342 11.1253 72.2329 11.536 71.5929 11.824C70.9529 12.112 70.2329 12.256 69.4329 12.256C68.6329 12.256 67.9129 12.112 67.2729 11.824C66.6435 11.536 66.1422 11.1253 65.7689 10.592C65.4062 10.048 65.2249 9.41333 65.2249 8.688C65.2249 8.016 65.3902 7.43467 65.7209 6.944C66.0515 6.44267 66.5102 6.06933 67.0969 5.824ZM71.1929 3.568C71.1929 3.04533 71.0329 2.64 70.7129 2.352C70.4035 2.064 69.9769 1.92 69.4329 1.92C68.8995 1.92 68.4729 2.064 68.1529 2.352C67.8435 2.64 67.6889 3.05067 67.6889 3.584C67.6889 4.064 67.8489 4.448 68.1689 4.736C68.4995 5.024 68.9209 5.168 69.4329 5.168C69.9449 5.168 70.3662 5.024 70.6969 4.736C71.0275 4.43733 71.1929 4.048 71.1929 3.568ZM69.4329 6.8C68.8249 6.8 68.3289 6.95467 67.9449 7.264C67.5715 7.57333 67.3849 8.016 67.3849 8.592C67.3849 9.12533 67.5662 9.56267 67.9289 9.904C68.3022 10.2347 68.8035 10.4 69.4329 10.4C70.0622 10.4 70.5582 10.2293 70.9209 9.888C71.2835 9.54667 71.4649 9.11467 71.4649 8.592C71.4649 8.02667 71.2782 7.58933 70.9049 7.28C70.5315 6.96 70.0409 6.8 69.4329 6.8ZM81.1906 5.824C80.124 5.26933 79.5906 4.41067 79.5906 3.248C79.5906 2.672 79.7346 2.14933 80.0226 1.68C80.3213 1.2 80.764 0.821333 81.3506 0.544C81.948 0.256 82.6733 0.112 83.5266 0.112C84.38 0.112 85.1 0.256 85.6866 0.544C86.284 0.821333 86.7266 1.2 87.0146 1.68C87.3133 2.14933 87.4626 2.672 87.4626 3.248C87.4626 3.83467 87.3186 4.352 87.0306 4.8C86.7426 5.23733 86.3586 5.57867 85.8786 5.824C86.4653 6.08 86.924 6.45333 87.2546 6.944C87.5853 7.43467 87.7506 8.016 87.7506 8.688C87.7506 9.41333 87.564 10.048 87.1906 10.592C86.828 11.1253 86.3266 11.536 85.6866 11.824C85.0466 12.112 84.3266 12.256 83.5266 12.256C82.7266 12.256 82.0066 12.112 81.3666 11.824C80.7373 11.536 80.236 11.1253 79.8626 10.592C79.5 10.048 79.3186 9.41333 79.3186 8.688C79.3186 8.016 79.484 7.43467 79.8146 6.944C80.1453 6.44267 80.604 6.06933 81.1906 5.824ZM85.2866 3.568C85.2866 3.04533 85.1266 2.64 84.8066 2.352C84.4973 2.064 84.0706 1.92 83.5266 1.92C82.9933 1.92 82.5666 2.064 82.2466 2.352C81.9373 2.64 81.7826 3.05067 81.7826 3.584C81.7826 4.064 81.9426 4.448 82.2626 4.736C82.5933 5.024 83.0146 5.168 83.5266 5.168C84.0386 5.168 84.46 5.024 84.7906 4.736C85.1213 4.43733 85.2866 4.048 85.2866 3.568ZM83.5266 6.8C82.9186 6.8 82.4226 6.95467 82.0386 7.264C81.6653 7.57333 81.4786 8.016 81.4786 8.592C81.4786 9.12533 81.66 9.56267 82.0226 9.904C82.396 10.2347 82.8973 10.4 83.5266 10.4C84.156 10.4 84.652 10.2293 85.0146 9.888C85.3773 9.54667 85.5586 9.11467 85.5586 8.592C85.5586 8.02667 85.372 7.58933 84.9986 7.28C84.6253 6.96 84.1346 6.8 83.5266 6.8ZM90.2239 9.472C91.2479 8.61867 92.0639 7.90933 92.6719 7.344C93.2799 6.768 93.7865 6.17067 94.1919 5.552C94.5972 4.93333 94.7999 4.32533 94.7999 3.728C94.7999 3.184 94.6719 2.75733 94.4159 2.448C94.1599 2.13867 93.7652 1.984 93.2319 1.984C92.6985 1.984 92.2879 2.16533 91.9999 2.528C91.7119 2.88 91.5625 3.36533 91.5519 3.984H89.3759C89.4185 2.704 89.7972 1.73333 90.5119 1.072C91.2372 0.410666 92.1545 0.079999 93.2639 0.079999C94.4799 0.079999 95.4132 0.405333 96.0639 1.056C96.7145 1.696 97.0399 2.544 97.0399 3.6C97.0399 4.432 96.8159 5.22667 96.3679 5.984C95.9199 6.74133 95.4079 7.40267 94.8319 7.968C94.2559 8.52267 93.5039 9.19467 92.5759 9.984H97.2959V11.84H89.3919V10.176L90.2239 9.472Z" fill="#273B39"/>
</svg>
